<?xml version="1.0" encoding="utf-8" standalone="no"?>
<!DOCTYPE svg PUBLIC "-//W3C//DTD SVG 1.1//EN"
  "http://www.w3.org/Graphics/SVG/1.1/DTD/svg11.dtd">
<svg xmlns:xlink="http://www.w3.org/1999/xlink" width="227.52pt" height="169.92pt" viewBox="0 0 227.52 169.92" xmlns="http://www.w3.org/2000/svg" version="1.1">
 <metadata>
  <rdf:RDF xmlns:dc="http://purl.org/dc/elements/1.1/" xmlns:cc="http://creativecommons.org/ns#" xmlns:rdf="http://www.w3.org/1999/02/22-rdf-syntax-ns#">
   <cc:Work>
    <dc:type rdf:resource="http://purl.org/dc/dcmitype/StillImage"/>
    <dc:date>2022-10-09T11:57:40.458098</dc:date>
    <dc:format>image/svg+xml</dc:format>
    <dc:creator>
     <cc:Agent>
      <dc:title>Matplotlib v3.5.0, https://matplotlib.org/</dc:title>
     </cc:Agent>
    </dc:creator>
   </cc:Work>
  </rdf:RDF>
 </metadata>
 <defs>
  <style type="text/css">*{stroke-linejoin: round; stroke-linecap: butt}</style>
 </defs>
 <g id="figure_1">
  <g id="patch_1">
   <path d="M 0 169.92 
L 227.52 169.92 
L 227.52 0 
L 0 0 
z
" style="fill: #ffffff"/>
  </g>
  <g id="axes_1">
   <g id="patch_2">
    <path d="M 15.070112 144.561762 
L 184.495961 144.561762 
L 184.495961 3.6 
L 15.070112 3.6 
z
" style="fill: #ffffff"/>
   </g>
   <g id="matplotlib.axis_1">
    <g id="xtick_1">
     <g id="line2d_1">
      <defs>
       <path id="m589ad9c83b" d="M 0 0 
L 0 -3 
" style="stroke: #000000; stroke-width: 0.5"/>
      </defs>
      <g>
       <use xlink:href="#m589ad9c83b" x="22.771287" y="144.561762" style="stroke: #000000; stroke-width: 0.5"/>
      </g>
     </g>
     <g id="line2d_2">
      <defs>
       <path id="m06d1874838" d="M 0 0 
L 0 3 
" style="stroke: #000000; stroke-width: 0.5"/>
      </defs>
      <g>
       <use xlink:href="#m06d1874838" x="22.771287" y="3.6" style="stroke: #000000; stroke-width: 0.5"/>
      </g>
     </g>
     <g id="text_1">
      <!-- NG -->
      <g transform="translate(17.016896 153.465418)scale(0.08 -0.08)">
       <defs>
        <path id="NimbusRomNo9L-Regu-4e" d="M 3917 -64 
L 3917 3287 
C 3917 3669 3981 3905 4102 3988 
C 4192 4051 4282 4077 4525 4102 
L 4525 4224 
L 3021 4224 
L 3021 4102 
C 3264 4083 3354 4058 3450 4000 
C 3578 3911 3635 3682 3635 3287 
L 3635 1140 
L 1171 4224 
L 77 4224 
L 77 4102 
C 352 4102 442 4051 698 3752 
L 698 943 
C 698 281 608 160 77 121 
L 77 0 
L 1581 0 
L 1581 121 
C 1088 147 979 294 979 940 
L 979 3449 
L 3808 -64 
L 3917 -64 
z
" transform="scale(0.015625)"/>
        <path id="NimbusRomNo9L-Regu-47" d="M 4538 2291 
L 2906 2291 
L 2906 2176 
C 3181 2156 3258 2137 3334 2086 
C 3430 2028 3469 1881 3469 1606 
L 3469 569 
C 3469 364 3078 192 2618 192 
C 1574 192 934 921 934 2112 
C 934 2713 1114 3296 1395 3609 
C 1677 3923 2074 4095 2509 4095 
C 2867 4095 3181 3974 3430 3744 
C 3622 3565 3725 3392 3885 3001 
L 4032 3001 
L 3981 4352 
L 3840 4352 
C 3802 4230 3686 4140 3552 4140 
C 3488 4140 3386 4159 3270 4204 
C 2982 4300 2688 4352 2400 4352 
C 1120 4352 205 3411 205 2105 
C 205 1478 378 998 736 620 
C 1165 179 1779 -64 2483 -64 
C 3034 -64 3834 160 4090 384 
L 4090 1683 
C 4090 2060 4166 2144 4538 2176 
L 4538 2291 
z
" transform="scale(0.015625)"/>
       </defs>
       <use xlink:href="#NimbusRomNo9L-Regu-4e" transform="scale(0.996264)"/>
       <use xlink:href="#NimbusRomNo9L-Regu-47" transform="translate(71.929985 0)scale(0.996264)"/>
      </g>
     </g>
    </g>
    <g id="xtick_2">
     <g id="line2d_3">
      <g>
       <use xlink:href="#m589ad9c83b" x="74.112453" y="144.561762" style="stroke: #000000; stroke-width: 0.5"/>
      </g>
     </g>
     <g id="line2d_4">
      <g>
       <use xlink:href="#m06d1874838" x="74.112453" y="3.6" style="stroke: #000000; stroke-width: 0.5"/>
      </g>
     </g>
     <g id="text_2">
      <!-- LGI -->
      <g transform="translate(67.473386 153.465418)scale(0.08 -0.08)">
       <defs>
        <path id="NimbusRomNo9L-Regu-4c" d="M 3667 1110 
C 3558 868 3469 721 3373 613 
C 3149 364 2797 249 2266 249 
L 1837 249 
C 1370 249 1286 287 1286 511 
L 1286 3528 
C 1286 3981 1376 4070 1882 4102 
L 1882 4224 
L 77 4224 
L 77 4102 
C 550 4064 634 3974 634 3528 
L 634 696 
C 634 249 544 153 77 121 
L 77 0 
L 3520 0 
L 3827 1113 
L 3667 1110 
z
" transform="scale(0.015625)"/>
        <path id="NimbusRomNo9L-Regu-49" d="M 736 695 
C 736 217 653 140 115 121 
L 115 0 
L 2016 0 
L 2016 121 
C 1491 140 1389 230 1389 695 
L 1389 3528 
C 1389 3994 1478 4077 2016 4102 
L 2016 4224 
L 115 4224 
L 115 4102 
C 659 4070 736 4000 736 3528 
L 736 695 
z
" transform="scale(0.015625)"/>
       </defs>
       <use xlink:href="#NimbusRomNo9L-Regu-4c" transform="scale(0.996264)"/>
       <use xlink:href="#NimbusRomNo9L-Regu-47" transform="translate(60.871631 0)scale(0.996264)"/>
       <use xlink:href="#NimbusRomNo9L-Regu-49" transform="translate(132.801616 0)scale(0.996264)"/>
      </g>
     </g>
    </g>
    <g id="xtick_3">
     <g id="line2d_5">
      <g>
       <use xlink:href="#m589ad9c83b" x="125.45362" y="144.561762" style="stroke: #000000; stroke-width: 0.5"/>
      </g>
     </g>
     <g id="line2d_6">
      <g>
       <use xlink:href="#m06d1874838" x="125.45362" y="3.6" style="stroke: #000000; stroke-width: 0.5"/>
      </g>
     </g>
     <g id="text_3">
      <!-- MGI -->
      <g transform="translate(117.706738 153.465418)scale(0.08 -0.08)">
       <defs>
        <path id="NimbusRomNo9L-Regu-4d" d="M 4314 3656 
L 4314 765 
C 4314 236 4237 153 3731 121 
L 3731 0 
L 5523 0 
L 5523 121 
C 5056 153 4966 242 4966 695 
L 4966 3528 
C 4966 3981 5050 4064 5523 4102 
L 5523 4224 
L 4250 4224 
L 2835 1002 
L 1357 4224 
L 90 4224 
L 90 4102 
C 614 4070 698 3994 698 3528 
L 698 938 
C 698 281 608 159 77 121 
L 77 0 
L 1581 0 
L 1581 121 
C 1088 147 979 293 979 938 
L 979 3509 
L 2586 0 
L 2675 0 
L 4314 3656 
z
" transform="scale(0.015625)"/>
       </defs>
       <use xlink:href="#NimbusRomNo9L-Regu-4d" transform="scale(0.996264)"/>
       <use xlink:href="#NimbusRomNo9L-Regu-47" transform="translate(88.566907 0)scale(0.996264)"/>
       <use xlink:href="#NimbusRomNo9L-Regu-49" transform="translate(160.496892 0)scale(0.996264)"/>
      </g>
     </g>
    </g>
    <g id="xtick_4">
     <g id="line2d_7">
      <g>
       <use xlink:href="#m589ad9c83b" x="176.794786" y="144.561762" style="stroke: #000000; stroke-width: 0.5"/>
      </g>
     </g>
     <g id="line2d_8">
      <g>
       <use xlink:href="#m06d1874838" x="176.794786" y="3.6" style="stroke: #000000; stroke-width: 0.5"/>
      </g>
     </g>
     <g id="text_4">
      <!-- HGI -->
      <g transform="translate(169.713385 153.465418)scale(0.08 -0.08)">
       <defs>
        <path id="NimbusRomNo9L-Regu-48" d="M 1338 2304 
L 1338 3532 
C 1338 3988 1408 4057 1901 4102 
L 1901 4224 
L 122 4224 
L 122 4102 
C 614 4057 685 3988 685 3532 
L 685 770 
C 685 230 621 153 122 121 
L 122 0 
L 1901 0 
L 1901 121 
C 1421 160 1338 243 1338 699 
L 1338 2022 
L 3277 2022 
L 3277 770 
C 3277 230 3213 153 2714 121 
L 2714 0 
L 4493 0 
L 4493 121 
C 4013 160 3930 243 3930 699 
L 3930 3532 
C 3930 3988 4000 4057 4493 4102 
L 4493 4224 
L 2714 4224 
L 2714 4102 
C 3206 4057 3277 3988 3277 3532 
L 3277 2304 
L 1338 2304 
z
" transform="scale(0.015625)"/>
       </defs>
       <use xlink:href="#NimbusRomNo9L-Regu-48" transform="scale(0.996264)"/>
       <use xlink:href="#NimbusRomNo9L-Regu-47" transform="translate(71.929985 0)scale(0.996264)"/>
       <use xlink:href="#NimbusRomNo9L-Regu-49" transform="translate(143.85997 0)scale(0.996264)"/>
      </g>
     </g>
    </g>
    <g id="xtick_5">
     <g id="line2d_9">
      <defs>
       <path id="mb5ec3aae85" d="M 0 0 
L 0 -1.5 
" style="stroke: #000000; stroke-width: 0.5"/>
      </defs>
      <g>
       <use xlink:href="#mb5ec3aae85" x="33.03952" y="144.561762" style="stroke: #000000; stroke-width: 0.5"/>
      </g>
     </g>
     <g id="line2d_10">
      <defs>
       <path id="m8ffc0fdfca" d="M 0 0 
L 0 1.5 
" style="stroke: #000000; stroke-width: 0.5"/>
      </defs>
      <g>
       <use xlink:href="#m8ffc0fdfca" x="33.03952" y="3.6" style="stroke: #000000; stroke-width: 0.5"/>
      </g>
     </g>
    </g>
    <g id="xtick_6">
     <g id="line2d_11">
      <g>
       <use xlink:href="#mb5ec3aae85" x="43.307754" y="144.561762" style="stroke: #000000; stroke-width: 0.5"/>
      </g>
     </g>
     <g id="line2d_12">
      <g>
       <use xlink:href="#m8ffc0fdfca" x="43.307754" y="3.6" style="stroke: #000000; stroke-width: 0.5"/>
      </g>
     </g>
    </g>
    <g id="xtick_7">
     <g id="line2d_13">
      <g>
       <use xlink:href="#mb5ec3aae85" x="53.575987" y="144.561762" style="stroke: #000000; stroke-width: 0.5"/>
      </g>
     </g>
     <g id="line2d_14">
      <g>
       <use xlink:href="#m8ffc0fdfca" x="53.575987" y="3.6" style="stroke: #000000; stroke-width: 0.5"/>
      </g>
     </g>
    </g>
    <g id="xtick_8">
     <g id="line2d_15">
      <g>
       <use xlink:href="#mb5ec3aae85" x="63.84422" y="144.561762" style="stroke: #000000; stroke-width: 0.5"/>
      </g>
     </g>
     <g id="line2d_16">
      <g>
       <use xlink:href="#m8ffc0fdfca" x="63.84422" y="3.6" style="stroke: #000000; stroke-width: 0.5"/>
      </g>
     </g>
    </g>
    <g id="xtick_9">
     <g id="line2d_17">
      <g>
       <use xlink:href="#mb5ec3aae85" x="84.380687" y="144.561762" style="stroke: #000000; stroke-width: 0.5"/>
      </g>
     </g>
     <g id="line2d_18">
      <g>
       <use xlink:href="#m8ffc0fdfca" x="84.380687" y="3.6" style="stroke: #000000; stroke-width: 0.5"/>
      </g>
     </g>
    </g>
    <g id="xtick_10">
     <g id="line2d_19">
      <g>
       <use xlink:href="#mb5ec3aae85" x="94.64892" y="144.561762" style="stroke: #000000; stroke-width: 0.5"/>
      </g>
     </g>
     <g id="line2d_20">
      <g>
       <use xlink:href="#m8ffc0fdfca" x="94.64892" y="3.6" style="stroke: #000000; stroke-width: 0.5"/>
      </g>
     </g>
    </g>
    <g id="xtick_11">
     <g id="line2d_21">
      <g>
       <use xlink:href="#mb5ec3aae85" x="104.917153" y="144.561762" style="stroke: #000000; stroke-width: 0.5"/>
      </g>
     </g>
     <g id="line2d_22">
      <g>
       <use xlink:href="#m8ffc0fdfca" x="104.917153" y="3.6" style="stroke: #000000; stroke-width: 0.5"/>
      </g>
     </g>
    </g>
    <g id="xtick_12">
     <g id="line2d_23">
      <g>
       <use xlink:href="#mb5ec3aae85" x="115.185386" y="144.561762" style="stroke: #000000; stroke-width: 0.5"/>
      </g>
     </g>
     <g id="line2d_24">
      <g>
       <use xlink:href="#m8ffc0fdfca" x="115.185386" y="3.6" style="stroke: #000000; stroke-width: 0.5"/>
      </g>
     </g>
    </g>
    <g id="xtick_13">
     <g id="line2d_25">
      <g>
       <use xlink:href="#mb5ec3aae85" x="135.721853" y="144.561762" style="stroke: #000000; stroke-width: 0.5"/>
      </g>
     </g>
     <g id="line2d_26">
      <g>
       <use xlink:href="#m8ffc0fdfca" x="135.721853" y="3.6" style="stroke: #000000; stroke-width: 0.5"/>
      </g>
     </g>
    </g>
    <g id="xtick_14">
     <g id="line2d_27">
      <g>
       <use xlink:href="#mb5ec3aae85" x="145.990086" y="144.561762" style="stroke: #000000; stroke-width: 0.5"/>
      </g>
     </g>
     <g id="line2d_28">
      <g>
       <use xlink:href="#m8ffc0fdfca" x="145.990086" y="3.6" style="stroke: #000000; stroke-width: 0.5"/>
      </g>
     </g>
    </g>
    <g id="xtick_15">
     <g id="line2d_29">
      <g>
       <use xlink:href="#mb5ec3aae85" x="156.258319" y="144.561762" style="stroke: #000000; stroke-width: 0.5"/>
      </g>
     </g>
     <g id="line2d_30">
      <g>
       <use xlink:href="#m8ffc0fdfca" x="156.258319" y="3.6" style="stroke: #000000; stroke-width: 0.5"/>
      </g>
     </g>
    </g>
    <g id="xtick_16">
     <g id="line2d_31">
      <g>
       <use xlink:href="#mb5ec3aae85" x="166.526553" y="144.561762" style="stroke: #000000; stroke-width: 0.5"/>
      </g>
     </g>
     <g id="line2d_32">
      <g>
       <use xlink:href="#m8ffc0fdfca" x="166.526553" y="3.6" style="stroke: #000000; stroke-width: 0.5"/>
      </g>
     </g>
    </g>
    <g id="text_5">
     <!-- Intensity -->
     <g transform="translate(85.83553 164.594537)scale(0.08 -0.08)">
      <defs>
       <path id="NimbusRomNo9L-Regu-6e" d="M 102 2547 
C 141 2566 205 2572 275 2572 
C 454 2572 512 2476 512 2163 
L 512 576 
C 512 211 442 121 115 96 
L 115 0 
L 1472 0 
L 1472 96 
C 1146 121 1050 198 1050 428 
L 1050 2227 
C 1357 2515 1498 2591 1709 2591 
C 2022 2591 2176 2393 2176 1971 
L 2176 633 
C 2176 230 2093 121 1773 96 
L 1773 0 
L 3104 0 
L 3104 96 
C 2790 128 2714 204 2714 518 
L 2714 1984 
C 2714 2585 2432 2944 1958 2944 
C 1664 2944 1466 2835 1030 2425 
L 1030 2931 
L 986 2944 
C 672 2828 454 2758 102 2655 
L 102 2547 
z
" transform="scale(0.015625)"/>
       <path id="NimbusRomNo9L-Regu-74" d="M 1632 2880 
L 986 2880 
L 986 3622 
C 986 3686 979 3705 941 3705 
C 896 3648 858 3590 813 3526 
C 570 3174 294 2867 192 2841 
C 122 2796 83 2751 83 2719 
C 83 2700 90 2687 109 2675 
L 448 2675 
L 448 748 
C 448 211 640 -64 1018 -64 
C 1331 -64 1574 89 1786 422 
L 1702 492 
C 1568 332 1459 268 1318 268 
C 1082 268 986 441 986 844 
L 986 2675 
L 1632 2675 
L 1632 2880 
z
" transform="scale(0.015625)"/>
       <path id="NimbusRomNo9L-Regu-65" d="M 2611 1052 
C 2304 564 2029 377 1619 377 
C 1254 377 979 564 794 930 
C 678 1174 634 1386 621 1779 
L 2592 1779 
C 2541 2193 2477 2377 2317 2580 
C 2125 2809 1830 2944 1498 2944 
C 1178 2944 877 2828 634 2612 
C 333 2351 160 1900 160 1374 
C 160 486 621 -64 1357 -64 
C 1965 -64 2445 313 2714 1007 
L 2611 1052 
z
M 634 1984 
C 704 2478 922 2713 1312 2713 
C 1702 2713 1856 2535 1939 1984 
L 634 1984 
z
" transform="scale(0.015625)"/>
       <path id="NimbusRomNo9L-Regu-73" d="M 2016 2009 
L 1990 2880 
L 1920 2880 
L 1907 2867 
C 1850 2822 1843 2815 1818 2815 
C 1779 2815 1715 2828 1645 2860 
C 1504 2918 1363 2944 1197 2944 
C 691 2944 326 2617 326 2155 
C 326 1796 531 1539 1075 1231 
L 1446 1019 
C 1670 891 1779 737 1779 538 
C 1779 256 1574 76 1248 76 
C 1030 76 832 160 710 301 
C 576 461 518 609 435 974 
L 333 974 
L 333 -26 
L 416 -26 
C 461 38 486 51 563 51 
C 621 51 710 38 858 0 
C 1037 -39 1210 -64 1325 -64 
C 1818 -64 2227 307 2227 756 
C 2227 1077 2074 1289 1690 1520 
L 998 1930 
C 819 2033 723 2193 723 2366 
C 723 2623 922 2803 1216 2803 
C 1581 2803 1773 2585 1920 2014 
L 2016 2009 
z
" transform="scale(0.015625)"/>
       <path id="NimbusRomNo9L-Regu-69" d="M 1120 2944 
L 128 2592 
L 128 2496 
L 179 2502 
C 256 2515 339 2521 397 2521 
C 550 2521 608 2419 608 2137 
L 608 652 
C 608 192 544 121 102 96 
L 102 0 
L 1619 0 
L 1619 96 
C 1197 128 1146 192 1146 652 
L 1146 2924 
L 1120 2944 
z
M 819 4352 
C 646 4352 499 4204 499 4025 
C 499 3846 640 3699 819 3699 
C 1005 3699 1152 3839 1152 4025 
C 1152 4204 1005 4352 819 4352 
z
" transform="scale(0.015625)"/>
       <path id="NimbusRomNo9L-Regu-79" d="M 3040 2880 
L 2176 2880 
L 2176 2783 
C 2381 2783 2483 2726 2483 2623 
C 2483 2597 2477 2559 2458 2514 
L 1837 741 
L 1101 2366 
C 1062 2456 1037 2540 1037 2610 
C 1037 2726 1133 2771 1408 2783 
L 1408 2880 
L 90 2880 
L 90 2790 
C 256 2764 365 2694 416 2585 
L 1146 1005 
L 1165 953 
L 1261 761 
C 1440 439 1542 208 1542 112 
C 1542 15 1395 -389 1286 -582 
C 1197 -749 1056 -871 966 -871 
C 928 -871 870 -858 806 -826 
C 685 -781 576 -755 467 -755 
C 320 -755 192 -884 192 -1037 
C 192 -1248 397 -1408 666 -1408 
C 1094 -1408 1402 -1050 1747 -126 
L 2733 2495 
C 2816 2700 2886 2764 3040 2783 
L 3040 2880 
z
" transform="scale(0.015625)"/>
      </defs>
      <use xlink:href="#NimbusRomNo9L-Regu-49" transform="scale(0.996264)"/>
      <use xlink:href="#NimbusRomNo9L-Regu-6e" transform="translate(33.17523 0)scale(0.996264)"/>
      <use xlink:href="#NimbusRomNo9L-Regu-74" transform="translate(82.98843 0)scale(0.996264)"/>
      <use xlink:href="#NimbusRomNo9L-Regu-65" transform="translate(110.6836 0)scale(0.996264)"/>
      <use xlink:href="#NimbusRomNo9L-Regu-6e" transform="translate(154.917169 0)scale(0.996264)"/>
      <use xlink:href="#NimbusRomNo9L-Regu-73" transform="translate(204.730369 0)scale(0.996264)"/>
      <use xlink:href="#NimbusRomNo9L-Regu-69" transform="translate(243.484075 0)scale(0.996264)"/>
      <use xlink:href="#NimbusRomNo9L-Regu-74" transform="translate(271.179245 0)scale(0.996264)"/>
      <use xlink:href="#NimbusRomNo9L-Regu-79" transform="translate(298.874414 0)scale(0.996264)"/>
     </g>
    </g>
   </g>
   <g id="matplotlib.axis_2">
    <g id="ytick_1">
     <g id="line2d_33">
      <defs>
       <path id="mecaff43c96" d="M 0 0 
L 3 0 
" style="stroke: #000000; stroke-width: 0.5"/>
      </defs>
      <g>
       <use xlink:href="#mecaff43c96" x="15.070112" y="139.975515" style="stroke: #000000; stroke-width: 0.5"/>
      </g>
     </g>
     <g id="line2d_34">
      <defs>
       <path id="m7be99b96b3" d="M 0 0 
L -3 0 
" style="stroke: #000000; stroke-width: 0.5"/>
      </defs>
      <g>
       <use xlink:href="#m7be99b96b3" x="184.495961" y="139.975515" style="stroke: #000000; stroke-width: 0.5"/>
      </g>
     </g>
     <g id="text_6">
      <!-- $\mathdefault{0}$ -->
      <g transform="translate(7.585056 142.677342)scale(0.08 -0.08)">
       <defs>
        <path id="NimbusRomNo9L-Regu-30" d="M 1626 4352 
C 1274 4352 1005 4243 768 4019 
C 397 3661 154 2924 154 2176 
C 154 1478 365 729 666 371 
C 902 89 1229 -64 1600 -64 
C 1926 -64 2202 44 2432 268 
C 2803 620 3046 1363 3046 2137 
C 3046 3449 2464 4352 1626 4352 
z
M 1606 4185 
C 2144 4185 2432 3462 2432 2124 
C 2432 787 2150 102 1600 102 
C 1050 102 768 787 768 2118 
C 768 3475 1056 4185 1606 4185 
z
" transform="scale(0.015625)"/>
       </defs>
       <use xlink:href="#NimbusRomNo9L-Regu-30" transform="scale(0.996264)"/>
      </g>
     </g>
    </g>
    <g id="ytick_2">
     <g id="line2d_35">
      <g>
       <use xlink:href="#mecaff43c96" x="15.070112" y="116.430796" style="stroke: #000000; stroke-width: 0.5"/>
      </g>
     </g>
     <g id="line2d_36">
      <g>
       <use xlink:href="#m7be99b96b3" x="184.495961" y="116.430796" style="stroke: #000000; stroke-width: 0.5"/>
      </g>
     </g>
     <g id="text_7">
      <!-- $\mathdefault{5}$ -->
      <g transform="translate(7.585056 119.132624)scale(0.08 -0.08)">
       <defs>
        <path id="NimbusRomNo9L-Regu-35" d="M 1158 3718 
L 2413 3718 
C 2515 3718 2541 3731 2560 3775 
L 2803 4345 
L 2746 4390 
C 2650 4256 2586 4224 2451 4224 
L 1114 4224 
L 416 2717 
C 410 2705 410 2698 410 2686 
C 410 2654 435 2635 486 2635 
C 691 2635 947 2591 1210 2508 
C 1946 2274 2285 1882 2285 1255 
C 2285 647 1894 172 1395 172 
C 1267 172 1158 217 966 356 
C 762 502 614 565 480 565 
C 294 565 205 489 205 331 
C 205 89 506 -64 986 -64 
C 1523 -64 1984 108 2304 432 
C 2598 717 2733 1078 2733 1559 
C 2733 2015 2611 2306 2291 2622 
C 2010 2901 1645 3047 890 3180 
L 1158 3718 
z
" transform="scale(0.015625)"/>
       </defs>
       <use xlink:href="#NimbusRomNo9L-Regu-35" transform="scale(0.996264)"/>
      </g>
     </g>
    </g>
    <g id="ytick_3">
     <g id="line2d_37">
      <g>
       <use xlink:href="#mecaff43c96" x="15.070112" y="92.886078" style="stroke: #000000; stroke-width: 0.5"/>
      </g>
     </g>
     <g id="line2d_38">
      <g>
       <use xlink:href="#m7be99b96b3" x="184.495961" y="92.886078" style="stroke: #000000; stroke-width: 0.5"/>
      </g>
     </g>
     <g id="text_8">
      <!-- $\mathdefault{10}$ -->
      <g transform="translate(3.6 95.587906)scale(0.08 -0.08)">
       <defs>
        <path id="NimbusRomNo9L-Regu-31" d="M 1862 4352 
L 710 3776 
L 710 3686 
C 787 3718 858 3743 883 3756 
C 998 3801 1107 3826 1171 3826 
C 1306 3826 1363 3731 1363 3525 
L 1363 599 
C 1363 386 1312 238 1210 179 
C 1114 121 1024 102 755 96 
L 755 0 
L 2522 0 
L 2522 96 
C 2016 102 1914 167 1914 477 
L 1914 4339 
L 1862 4352 
z
" transform="scale(0.015625)"/>
       </defs>
       <use xlink:href="#NimbusRomNo9L-Regu-31" transform="scale(0.996264)"/>
       <use xlink:href="#NimbusRomNo9L-Regu-30" transform="translate(49.8132 0)scale(0.996264)"/>
      </g>
     </g>
    </g>
    <g id="ytick_4">
     <g id="line2d_39">
      <g>
       <use xlink:href="#mecaff43c96" x="15.070112" y="69.34136" style="stroke: #000000; stroke-width: 0.5"/>
      </g>
     </g>
     <g id="line2d_40">
      <g>
       <use xlink:href="#m7be99b96b3" x="184.495961" y="69.34136" style="stroke: #000000; stroke-width: 0.5"/>
      </g>
     </g>
     <g id="text_9">
      <!-- $\mathdefault{15}$ -->
      <g transform="translate(3.6 72.043188)scale(0.08 -0.08)">
       <use xlink:href="#NimbusRomNo9L-Regu-31" transform="scale(0.996264)"/>
       <use xlink:href="#NimbusRomNo9L-Regu-35" transform="translate(49.8132 0)scale(0.996264)"/>
      </g>
     </g>
    </g>
    <g id="ytick_5">
     <g id="line2d_41">
      <g>
       <use xlink:href="#mecaff43c96" x="15.070112" y="45.796642" style="stroke: #000000; stroke-width: 0.5"/>
      </g>
     </g>
     <g id="line2d_42">
      <g>
       <use xlink:href="#m7be99b96b3" x="184.495961" y="45.796642" style="stroke: #000000; stroke-width: 0.5"/>
      </g>
     </g>
     <g id="text_10">
      <!-- $\mathdefault{20}$ -->
      <g transform="translate(3.6 48.49847)scale(0.08 -0.08)">
       <defs>
        <path id="NimbusRomNo9L-Regu-32" d="M 3040 879 
L 2957 912 
C 2720 544 2637 486 2349 486 
L 819 486 
L 1894 1621 
C 2464 2221 2714 2711 2714 3214 
C 2714 3858 2195 4352 1530 4352 
C 1178 4352 845 4211 608 3955 
C 403 3736 307 3530 198 3072 
L 333 3039 
C 589 3671 819 3878 1261 3878 
C 1798 3878 2163 3510 2163 2969 
C 2163 2466 1869 1866 1331 1292 
L 192 76 
L 192 0 
L 2688 0 
L 3040 879 
z
" transform="scale(0.015625)"/>
       </defs>
       <use xlink:href="#NimbusRomNo9L-Regu-32" transform="scale(0.996264)"/>
       <use xlink:href="#NimbusRomNo9L-Regu-30" transform="translate(49.8132 0)scale(0.996264)"/>
      </g>
     </g>
    </g>
    <g id="ytick_6">
     <g id="line2d_43">
      <g>
       <use xlink:href="#mecaff43c96" x="15.070112" y="22.251924" style="stroke: #000000; stroke-width: 0.5"/>
      </g>
     </g>
     <g id="line2d_44">
      <g>
       <use xlink:href="#m7be99b96b3" x="184.495961" y="22.251924" style="stroke: #000000; stroke-width: 0.5"/>
      </g>
     </g>
     <g id="text_11">
      <!-- $\mathdefault{25}$ -->
      <g transform="translate(3.6 24.953752)scale(0.08 -0.08)">
       <use xlink:href="#NimbusRomNo9L-Regu-32" transform="scale(0.996264)"/>
       <use xlink:href="#NimbusRomNo9L-Regu-35" transform="translate(49.8132 0)scale(0.996264)"/>
      </g>
     </g>
    </g>
    <g id="ytick_7">
     <g id="line2d_45">
      <defs>
       <path id="mf80580084f" d="M 0 0 
L 1.5 0 
" style="stroke: #000000; stroke-width: 0.5"/>
      </defs>
      <g>
       <use xlink:href="#mf80580084f" x="15.070112" y="135.266571" style="stroke: #000000; stroke-width: 0.5"/>
      </g>
     </g>
     <g id="line2d_46">
      <defs>
       <path id="me47353111d" d="M 0 0 
L -1.5 0 
" style="stroke: #000000; stroke-width: 0.5"/>
      </defs>
      <g>
       <use xlink:href="#me47353111d" x="184.495961" y="135.266571" style="stroke: #000000; stroke-width: 0.5"/>
      </g>
     </g>
    </g>
    <g id="ytick_8">
     <g id="line2d_47">
      <g>
       <use xlink:href="#mf80580084f" x="15.070112" y="130.557627" style="stroke: #000000; stroke-width: 0.5"/>
      </g>
     </g>
     <g id="line2d_48">
      <g>
       <use xlink:href="#me47353111d" x="184.495961" y="130.557627" style="stroke: #000000; stroke-width: 0.5"/>
      </g>
     </g>
    </g>
    <g id="ytick_9">
     <g id="line2d_49">
      <g>
       <use xlink:href="#mf80580084f" x="15.070112" y="125.848684" style="stroke: #000000; stroke-width: 0.5"/>
      </g>
     </g>
     <g id="line2d_50">
      <g>
       <use xlink:href="#me47353111d" x="184.495961" y="125.848684" style="stroke: #000000; stroke-width: 0.5"/>
      </g>
     </g>
    </g>
    <g id="ytick_10">
     <g id="line2d_51">
      <g>
       <use xlink:href="#mf80580084f" x="15.070112" y="121.13974" style="stroke: #000000; stroke-width: 0.5"/>
      </g>
     </g>
     <g id="line2d_52">
      <g>
       <use xlink:href="#me47353111d" x="184.495961" y="121.13974" style="stroke: #000000; stroke-width: 0.5"/>
      </g>
     </g>
    </g>
    <g id="ytick_11">
     <g id="line2d_53">
      <g>
       <use xlink:href="#mf80580084f" x="15.070112" y="111.721853" style="stroke: #000000; stroke-width: 0.5"/>
      </g>
     </g>
     <g id="line2d_54">
      <g>
       <use xlink:href="#me47353111d" x="184.495961" y="111.721853" style="stroke: #000000; stroke-width: 0.5"/>
      </g>
     </g>
    </g>
    <g id="ytick_12">
     <g id="line2d_55">
      <g>
       <use xlink:href="#mf80580084f" x="15.070112" y="107.012909" style="stroke: #000000; stroke-width: 0.5"/>
      </g>
     </g>
     <g id="line2d_56">
      <g>
       <use xlink:href="#me47353111d" x="184.495961" y="107.012909" style="stroke: #000000; stroke-width: 0.5"/>
      </g>
     </g>
    </g>
    <g id="ytick_13">
     <g id="line2d_57">
      <g>
       <use xlink:href="#mf80580084f" x="15.070112" y="102.303965" style="stroke: #000000; stroke-width: 0.5"/>
      </g>
     </g>
     <g id="line2d_58">
      <g>
       <use xlink:href="#me47353111d" x="184.495961" y="102.303965" style="stroke: #000000; stroke-width: 0.5"/>
      </g>
     </g>
    </g>
    <g id="ytick_14">
     <g id="line2d_59">
      <g>
       <use xlink:href="#mf80580084f" x="15.070112" y="97.595022" style="stroke: #000000; stroke-width: 0.5"/>
      </g>
     </g>
     <g id="line2d_60">
      <g>
       <use xlink:href="#me47353111d" x="184.495961" y="97.595022" style="stroke: #000000; stroke-width: 0.5"/>
      </g>
     </g>
    </g>
    <g id="ytick_15">
     <g id="line2d_61">
      <g>
       <use xlink:href="#mf80580084f" x="15.070112" y="88.177135" style="stroke: #000000; stroke-width: 0.5"/>
      </g>
     </g>
     <g id="line2d_62">
      <g>
       <use xlink:href="#me47353111d" x="184.495961" y="88.177135" style="stroke: #000000; stroke-width: 0.5"/>
      </g>
     </g>
    </g>
    <g id="ytick_16">
     <g id="line2d_63">
      <g>
       <use xlink:href="#mf80580084f" x="15.070112" y="83.468191" style="stroke: #000000; stroke-width: 0.5"/>
      </g>
     </g>
     <g id="line2d_64">
      <g>
       <use xlink:href="#me47353111d" x="184.495961" y="83.468191" style="stroke: #000000; stroke-width: 0.5"/>
      </g>
     </g>
    </g>
    <g id="ytick_17">
     <g id="line2d_65">
      <g>
       <use xlink:href="#mf80580084f" x="15.070112" y="78.759247" style="stroke: #000000; stroke-width: 0.5"/>
      </g>
     </g>
     <g id="line2d_66">
      <g>
       <use xlink:href="#me47353111d" x="184.495961" y="78.759247" style="stroke: #000000; stroke-width: 0.5"/>
      </g>
     </g>
    </g>
    <g id="ytick_18">
     <g id="line2d_67">
      <g>
       <use xlink:href="#mf80580084f" x="15.070112" y="74.050304" style="stroke: #000000; stroke-width: 0.5"/>
      </g>
     </g>
     <g id="line2d_68">
      <g>
       <use xlink:href="#me47353111d" x="184.495961" y="74.050304" style="stroke: #000000; stroke-width: 0.5"/>
      </g>
     </g>
    </g>
    <g id="ytick_19">
     <g id="line2d_69">
      <g>
       <use xlink:href="#mf80580084f" x="15.070112" y="64.632416" style="stroke: #000000; stroke-width: 0.5"/>
      </g>
     </g>
     <g id="line2d_70">
      <g>
       <use xlink:href="#me47353111d" x="184.495961" y="64.632416" style="stroke: #000000; stroke-width: 0.5"/>
      </g>
     </g>
    </g>
    <g id="ytick_20">
     <g id="line2d_71">
      <g>
       <use xlink:href="#mf80580084f" x="15.070112" y="59.923473" style="stroke: #000000; stroke-width: 0.5"/>
      </g>
     </g>
     <g id="line2d_72">
      <g>
       <use xlink:href="#me47353111d" x="184.495961" y="59.923473" style="stroke: #000000; stroke-width: 0.5"/>
      </g>
     </g>
    </g>
    <g id="ytick_21">
     <g id="line2d_73">
      <g>
       <use xlink:href="#mf80580084f" x="15.070112" y="55.214529" style="stroke: #000000; stroke-width: 0.5"/>
      </g>
     </g>
     <g id="line2d_74">
      <g>
       <use xlink:href="#me47353111d" x="184.495961" y="55.214529" style="stroke: #000000; stroke-width: 0.5"/>
      </g>
     </g>
    </g>
    <g id="ytick_22">
     <g id="line2d_75">
      <g>
       <use xlink:href="#mf80580084f" x="15.070112" y="50.505586" style="stroke: #000000; stroke-width: 0.5"/>
      </g>
     </g>
     <g id="line2d_76">
      <g>
       <use xlink:href="#me47353111d" x="184.495961" y="50.505586" style="stroke: #000000; stroke-width: 0.5"/>
      </g>
     </g>
    </g>
    <g id="ytick_23">
     <g id="line2d_77">
      <g>
       <use xlink:href="#mf80580084f" x="15.070112" y="41.087698" style="stroke: #000000; stroke-width: 0.5"/>
      </g>
     </g>
     <g id="line2d_78">
      <g>
       <use xlink:href="#me47353111d" x="184.495961" y="41.087698" style="stroke: #000000; stroke-width: 0.5"/>
      </g>
     </g>
    </g>
    <g id="ytick_24">
     <g id="line2d_79">
      <g>
       <use xlink:href="#mf80580084f" x="15.070112" y="36.378755" style="stroke: #000000; stroke-width: 0.5"/>
      </g>
     </g>
     <g id="line2d_80">
      <g>
       <use xlink:href="#me47353111d" x="184.495961" y="36.378755" style="stroke: #000000; stroke-width: 0.5"/>
      </g>
     </g>
    </g>
    <g id="ytick_25">
     <g id="line2d_81">
      <g>
       <use xlink:href="#mf80580084f" x="15.070112" y="31.669811" style="stroke: #000000; stroke-width: 0.5"/>
      </g>
     </g>
     <g id="line2d_82">
      <g>
       <use xlink:href="#me47353111d" x="184.495961" y="31.669811" style="stroke: #000000; stroke-width: 0.5"/>
      </g>
     </g>
    </g>
    <g id="ytick_26">
     <g id="line2d_83">
      <g>
       <use xlink:href="#mf80580084f" x="15.070112" y="26.960867" style="stroke: #000000; stroke-width: 0.5"/>
      </g>
     </g>
     <g id="line2d_84">
      <g>
       <use xlink:href="#me47353111d" x="184.495961" y="26.960867" style="stroke: #000000; stroke-width: 0.5"/>
      </g>
     </g>
    </g>
    <g id="ytick_27">
     <g id="line2d_85">
      <g>
       <use xlink:href="#mf80580084f" x="15.070112" y="17.54298" style="stroke: #000000; stroke-width: 0.5"/>
      </g>
     </g>
     <g id="line2d_86">
      <g>
       <use xlink:href="#me47353111d" x="184.495961" y="17.54298" style="stroke: #000000; stroke-width: 0.5"/>
      </g>
     </g>
    </g>
    <g id="ytick_28">
     <g id="line2d_87">
      <g>
       <use xlink:href="#mf80580084f" x="15.070112" y="12.834037" style="stroke: #000000; stroke-width: 0.5"/>
      </g>
     </g>
     <g id="line2d_88">
      <g>
       <use xlink:href="#me47353111d" x="184.495961" y="12.834037" style="stroke: #000000; stroke-width: 0.5"/>
      </g>
     </g>
    </g>
    <g id="ytick_29">
     <g id="line2d_89">
      <g>
       <use xlink:href="#mf80580084f" x="15.070112" y="8.125093" style="stroke: #000000; stroke-width: 0.5"/>
      </g>
     </g>
     <g id="line2d_90">
      <g>
       <use xlink:href="#me47353111d" x="184.495961" y="8.125093" style="stroke: #000000; stroke-width: 0.5"/>
      </g>
     </g>
    </g>
   </g>
   <g id="line2d_91">
    <defs>
     <path id="mbe60cf3c48" d="M 0 -1.5 
L -1.5 1.5 
L 1.5 1.5 
z
" style="stroke: #33ddfd; stroke-linejoin: miter"/>
    </defs>
    <g clip-path="url(#pfcd7730e25)">
     <use xlink:href="#mbe60cf3c48" x="22.771287" y="113.43167" style="fill: #33ddfd; stroke: #33ddfd; stroke-linejoin: miter"/>
     <use xlink:href="#mbe60cf3c48" x="22.771287" y="125.077233" style="fill: #33ddfd; stroke: #33ddfd; stroke-linejoin: miter"/>
     <use xlink:href="#mbe60cf3c48" x="22.771287" y="124.262146" style="fill: #33ddfd; stroke: #33ddfd; stroke-linejoin: miter"/>
     <use xlink:href="#mbe60cf3c48" x="74.112453" y="136.709972" style="fill: #33ddfd; stroke: #33ddfd; stroke-linejoin: miter"/>
     <use xlink:href="#mbe60cf3c48" x="74.112453" y="127.997594" style="fill: #33ddfd; stroke: #33ddfd; stroke-linejoin: miter"/>
     <use xlink:href="#mbe60cf3c48" x="74.112453" y="105.164617" style="fill: #33ddfd; stroke: #33ddfd; stroke-linejoin: miter"/>
     <use xlink:href="#mbe60cf3c48" x="125.45362" y="138.154409" style="fill: #33ddfd; stroke: #33ddfd; stroke-linejoin: miter"/>
     <use xlink:href="#mbe60cf3c48" x="125.45362" y="123.856581" style="fill: #33ddfd; stroke: #33ddfd; stroke-linejoin: miter"/>
     <use xlink:href="#mbe60cf3c48" x="125.45362" y="92.235961" style="fill: #33ddfd; stroke: #33ddfd; stroke-linejoin: miter"/>
     <use xlink:href="#mbe60cf3c48" x="176.794786" y="133.982348" style="fill: #33ddfd; stroke: #33ddfd; stroke-linejoin: miter"/>
     <use xlink:href="#mbe60cf3c48" x="176.794786" y="130.013697" style="fill: #33ddfd; stroke: #33ddfd; stroke-linejoin: miter"/>
     <use xlink:href="#mbe60cf3c48" x="176.794786" y="122.529161" style="fill: #33ddfd; stroke: #33ddfd; stroke-linejoin: miter"/>
    </g>
   </g>
   <g id="line2d_92">
    <defs>
     <path id="mf72092932f" d="M 0 -1.5 
L -1.5 1.5 
L 1.5 1.5 
z
" style="stroke: #645224; stroke-linejoin: miter"/>
    </defs>
    <g clip-path="url(#pfcd7730e25)">
     <use xlink:href="#mf72092932f" x="22.771287" y="61.522126" style="fill: #645224; stroke: #645224; stroke-linejoin: miter"/>
     <use xlink:href="#mf72092932f" x="22.771287" y="59.569968" style="fill: #645224; stroke: #645224; stroke-linejoin: miter"/>
     <use xlink:href="#mf72092932f" x="22.771287" y="39.859916" style="fill: #645224; stroke: #645224; stroke-linejoin: miter"/>
     <use xlink:href="#mf72092932f" x="74.112453" y="72.579007" style="fill: #645224; stroke: #645224; stroke-linejoin: miter"/>
     <use xlink:href="#mf72092932f" x="74.112453" y="62.452318" style="fill: #645224; stroke: #645224; stroke-linejoin: miter"/>
     <use xlink:href="#mf72092932f" x="74.112453" y="44.81825" style="fill: #645224; stroke: #645224; stroke-linejoin: miter"/>
     <use xlink:href="#mf72092932f" x="125.45362" y="73.324055" style="fill: #645224; stroke: #645224; stroke-linejoin: miter"/>
     <use xlink:href="#mf72092932f" x="125.45362" y="71.793856" style="fill: #645224; stroke: #645224; stroke-linejoin: miter"/>
     <use xlink:href="#mf72092932f" x="125.45362" y="71.06118" style="fill: #645224; stroke: #645224; stroke-linejoin: miter"/>
     <use xlink:href="#mf72092932f" x="176.794786" y="58.87103" style="fill: #645224; stroke: #645224; stroke-linejoin: miter"/>
     <use xlink:href="#mf72092932f" x="176.794786" y="58.717503" style="fill: #645224; stroke: #645224; stroke-linejoin: miter"/>
     <use xlink:href="#mf72092932f" x="176.794786" y="64.439941" style="fill: #645224; stroke: #645224; stroke-linejoin: miter"/>
    </g>
   </g>
   <g id="line2d_93">
    <defs>
     <path id="m116f5a89a1" d="M 0 -1.5 
L -1.5 1.5 
L 1.5 1.5 
z
" style="stroke: #ec4b10; stroke-linejoin: miter"/>
    </defs>
    <g clip-path="url(#pfcd7730e25)">
     <use xlink:href="#m116f5a89a1" x="22.771287" y="34.978281" style="fill: #ec4b10; stroke: #ec4b10; stroke-linejoin: miter"/>
     <use xlink:href="#m116f5a89a1" x="22.771287" y="44.671687" style="fill: #ec4b10; stroke: #ec4b10; stroke-linejoin: miter"/>
     <use xlink:href="#m116f5a89a1" x="22.771287" y="24.146548" style="fill: #ec4b10; stroke: #ec4b10; stroke-linejoin: miter"/>
     <use xlink:href="#m116f5a89a1" x="74.112453" y="69.313465" style="fill: #ec4b10; stroke: #ec4b10; stroke-linejoin: miter"/>
     <use xlink:href="#m116f5a89a1" x="74.112453" y="50.474398" style="fill: #ec4b10; stroke: #ec4b10; stroke-linejoin: miter"/>
     <use xlink:href="#m116f5a89a1" x="74.112453" y="10.007353" style="fill: #ec4b10; stroke: #ec4b10; stroke-linejoin: miter"/>
     <use xlink:href="#m116f5a89a1" x="125.45362" y="71.502949" style="fill: #ec4b10; stroke: #ec4b10; stroke-linejoin: miter"/>
     <use xlink:href="#m116f5a89a1" x="125.45362" y="55.674922" style="fill: #ec4b10; stroke: #ec4b10; stroke-linejoin: miter"/>
     <use xlink:href="#m116f5a89a1" x="125.45362" y="23.321627" style="fill: #ec4b10; stroke: #ec4b10; stroke-linejoin: miter"/>
     <use xlink:href="#m116f5a89a1" x="176.794786" y="52.877864" style="fill: #ec4b10; stroke: #ec4b10; stroke-linejoin: miter"/>
     <use xlink:href="#m116f5a89a1" x="176.794786" y="48.755685" style="fill: #ec4b10; stroke: #ec4b10; stroke-linejoin: miter"/>
     <use xlink:href="#m116f5a89a1" x="176.794786" y="46.993588" style="fill: #ec4b10; stroke: #ec4b10; stroke-linejoin: miter"/>
    </g>
   </g>
   <g id="line2d_94">
    <defs>
     <path id="mbdbddfeafc" d="M 0 -1.5 
L -1.5 1.5 
L 1.5 1.5 
z
" style="stroke: #a19e76; stroke-linejoin: miter"/>
    </defs>
    <g clip-path="url(#pfcd7730e25)">
     <use xlink:href="#mbdbddfeafc" x="22.771287" y="130.104215" style="fill: #a19e76; stroke: #a19e76; stroke-linejoin: miter"/>
     <use xlink:href="#mbdbddfeafc" x="22.771287" y="129.187088" style="fill: #a19e76; stroke: #a19e76; stroke-linejoin: miter"/>
     <use xlink:href="#mbdbddfeafc" x="22.771287" y="128.047384" style="fill: #a19e76; stroke: #a19e76; stroke-linejoin: miter"/>
     <use xlink:href="#mbdbddfeafc" x="74.112453" y="130.865483" style="fill: #a19e76; stroke: #a19e76; stroke-linejoin: miter"/>
     <use xlink:href="#mbdbddfeafc" x="74.112453" y="130.883488" style="fill: #a19e76; stroke: #a19e76; stroke-linejoin: miter"/>
     <use xlink:href="#mbdbddfeafc" x="74.112453" y="129.093333" style="fill: #a19e76; stroke: #a19e76; stroke-linejoin: miter"/>
     <use xlink:href="#mbdbddfeafc" x="125.45362" y="130.987927" style="fill: #a19e76; stroke: #a19e76; stroke-linejoin: miter"/>
     <use xlink:href="#mbdbddfeafc" x="125.45362" y="130.789287" style="fill: #a19e76; stroke: #a19e76; stroke-linejoin: miter"/>
     <use xlink:href="#mbdbddfeafc" x="125.45362" y="132.575483" style="fill: #a19e76; stroke: #a19e76; stroke-linejoin: miter"/>
     <use xlink:href="#mbdbddfeafc" x="176.794786" y="129.290427" style="fill: #a19e76; stroke: #a19e76; stroke-linejoin: miter"/>
     <use xlink:href="#mbdbddfeafc" x="176.794786" y="129.518133" style="fill: #a19e76; stroke: #a19e76; stroke-linejoin: miter"/>
     <use xlink:href="#mbdbddfeafc" x="176.794786" y="130.431587" style="fill: #a19e76; stroke: #a19e76; stroke-linejoin: miter"/>
    </g>
   </g>
   <g id="line2d_95">
    <defs>
     <path id="m867e7b725b" d="M 0 -1.5 
L -1.5 1.5 
L 1.5 1.5 
z
" style="stroke: #137ae0; stroke-linejoin: miter"/>
    </defs>
    <g clip-path="url(#pfcd7730e25)">
     <use xlink:href="#m867e7b725b" x="22.771287" y="89.888283" style="fill: #137ae0; stroke: #137ae0; stroke-linejoin: miter"/>
     <use xlink:href="#m867e7b725b" x="22.771287" y="98.377202" style="fill: #137ae0; stroke: #137ae0; stroke-linejoin: miter"/>
     <use xlink:href="#m867e7b725b" x="22.771287" y="94.248982" style="fill: #137ae0; stroke: #137ae0; stroke-linejoin: miter"/>
     <use xlink:href="#m867e7b725b" x="74.112453" y="103.450547" style="fill: #137ae0; stroke: #137ae0; stroke-linejoin: miter"/>
     <use xlink:href="#m867e7b725b" x="74.112453" y="93.621083" style="fill: #137ae0; stroke: #137ae0; stroke-linejoin: miter"/>
     <use xlink:href="#m867e7b725b" x="74.112453" y="83.735622" style="fill: #137ae0; stroke: #137ae0; stroke-linejoin: miter"/>
     <use xlink:href="#m867e7b725b" x="125.45362" y="104.100099" style="fill: #137ae0; stroke: #137ae0; stroke-linejoin: miter"/>
     <use xlink:href="#m867e7b725b" x="125.45362" y="96.762264" style="fill: #137ae0; stroke: #137ae0; stroke-linejoin: miter"/>
     <use xlink:href="#m867e7b725b" x="125.45362" y="65.743857" style="fill: #137ae0; stroke: #137ae0; stroke-linejoin: miter"/>
     <use xlink:href="#m867e7b725b" x="176.794786" y="101.591372" style="fill: #137ae0; stroke: #137ae0; stroke-linejoin: miter"/>
     <use xlink:href="#m867e7b725b" x="176.794786" y="98.899359" style="fill: #137ae0; stroke: #137ae0; stroke-linejoin: miter"/>
     <use xlink:href="#m867e7b725b" x="176.794786" y="94.098526" style="fill: #137ae0; stroke: #137ae0; stroke-linejoin: miter"/>
    </g>
   </g>
   <g id="patch_3">
    <path d="M 15.070112 144.561762 
L 15.070112 3.6 
" style="fill: none; stroke: #000000; stroke-width: 0.5; stroke-linejoin: miter; stroke-linecap: square"/>
   </g>
   <g id="patch_4">
    <path d="M 184.495961 144.561762 
L 184.495961 3.6 
" style="fill: none; stroke: #000000; stroke-width: 0.5; stroke-linejoin: miter; stroke-linecap: square"/>
   </g>
   <g id="patch_5">
    <path d="M 15.070112 144.561762 
L 184.495961 144.561762 
" style="fill: none; stroke: #000000; stroke-width: 0.5; stroke-linejoin: miter; stroke-linecap: square"/>
   </g>
   <g id="patch_6">
    <path d="M 15.070112 3.6 
L 184.495961 3.6 
" style="fill: none; stroke: #000000; stroke-width: 0.5; stroke-linejoin: miter; stroke-linecap: square"/>
   </g>
   <g id="legend_1">
    <g id="line2d_96">
     <g>
      <use xlink:href="#mbe60cf3c48" x="195.695961" y="9.6" style="fill: #33ddfd; stroke: #33ddfd; stroke-linejoin: miter"/>
     </g>
    </g>
    <g id="text_12">
     <!-- sic -->
     <g transform="translate(210.095961 12.4)scale(0.08 -0.08)">
      <defs>
       <path id="NimbusRomNo9L-Regu-63" d="M 2547 998 
C 2240 550 2010 396 1645 396 
C 1062 396 653 908 653 1644 
C 653 2303 1005 2758 1523 2758 
C 1754 2758 1837 2687 1901 2451 
L 1939 2310 
C 1990 2131 2106 2015 2240 2015 
C 2406 2015 2547 2137 2547 2284 
C 2547 2643 2099 2944 1562 2944 
C 1248 2944 922 2815 659 2585 
C 339 2303 160 1868 160 1363 
C 160 531 666 -64 1376 -64 
C 1664 -64 1920 38 2150 236 
C 2323 390 2445 563 2637 940 
L 2547 998 
z
" transform="scale(0.015625)"/>
      </defs>
      <use xlink:href="#NimbusRomNo9L-Regu-73" transform="scale(0.996264)"/>
      <use xlink:href="#NimbusRomNo9L-Regu-69" transform="translate(38.753706 0)scale(0.996264)"/>
      <use xlink:href="#NimbusRomNo9L-Regu-63" transform="translate(66.448876 0)scale(0.996264)"/>
     </g>
    </g>
    <g id="line2d_97">
     <g>
      <use xlink:href="#mf72092932f" x="195.695961" y="20.925463" style="fill: #645224; stroke: #645224; stroke-linejoin: miter"/>
     </g>
    </g>
    <g id="text_13">
     <!-- soc -->
     <g transform="translate(210.095961 23.725463)scale(0.08 -0.08)">
      <defs>
       <path id="NimbusRomNo9L-Regu-6f" d="M 1600 2944 
C 768 2944 186 2329 186 1446 
C 186 582 781 -64 1587 -64 
C 2394 -64 3008 614 3008 1497 
C 3008 2336 2419 2944 1600 2944 
z
M 1517 2764 
C 2054 2764 2432 2150 2432 1273 
C 2432 550 2144 115 1664 115 
C 1414 115 1178 268 1043 524 
C 864 857 762 1305 762 1760 
C 762 2368 1062 2764 1517 2764 
z
" transform="scale(0.015625)"/>
      </defs>
      <use xlink:href="#NimbusRomNo9L-Regu-73" transform="scale(0.996264)"/>
      <use xlink:href="#NimbusRomNo9L-Regu-6f" transform="translate(38.753706 0)scale(0.996264)"/>
      <use xlink:href="#NimbusRomNo9L-Regu-63" transform="translate(88.566907 0)scale(0.996264)"/>
     </g>
    </g>
    <g id="line2d_98">
     <g>
      <use xlink:href="#m116f5a89a1" x="195.695961" y="32.250926" style="fill: #ec4b10; stroke: #ec4b10; stroke-linejoin: miter"/>
     </g>
    </g>
    <g id="text_14">
     <!-- stc -->
     <g transform="translate(210.095961 35.050926)scale(0.08 -0.08)">
      <use xlink:href="#NimbusRomNo9L-Regu-73" transform="scale(0.996264)"/>
      <use xlink:href="#NimbusRomNo9L-Regu-74" transform="translate(38.753706 0)scale(0.996264)"/>
      <use xlink:href="#NimbusRomNo9L-Regu-63" transform="translate(66.448876 0)scale(0.996264)"/>
     </g>
    </g>
    <g id="line2d_99">
     <g>
      <use xlink:href="#mbdbddfeafc" x="195.695961" y="43.576389" style="fill: #a19e76; stroke: #a19e76; stroke-linejoin: miter"/>
     </g>
    </g>
    <g id="text_15">
     <!-- n -->
     <g transform="translate(210.095961 46.376389)scale(0.08 -0.08)">
      <use xlink:href="#NimbusRomNo9L-Regu-6e" transform="scale(0.996264)"/>
     </g>
    </g>
    <g id="line2d_100">
     <g>
      <use xlink:href="#m867e7b725b" x="195.695961" y="54.901852" style="fill: #137ae0; stroke: #137ae0; stroke-linejoin: miter"/>
     </g>
    </g>
    <g id="text_16">
     <!-- c_n -->
     <g transform="translate(210.095961 57.701852)scale(0.08 -0.08)">
      <use xlink:href="#NimbusRomNo9L-Regu-63" transform="scale(0.996264)"/>
      <use xlink:href="#NimbusRomNo9L-Regu-6e" transform="translate(80.099134 0)scale(0.996264)"/>
      <path d="M 50.21091 0 
L 80.099134 0 
L 80.099134 0.3985 
L 50.21091 0.3985 
L 50.21091 0 
z
"/>
     </g>
    </g>
   </g>
  </g>
 </g>
 <defs>
  <clipPath id="pfcd7730e25">
   <rect x="15.070112" y="3.6" width="169.425849" height="140.961762"/>
  </clipPath>
 </defs>
</svg>
